<?xml version="1.0" encoding="iso-8859-1"?>
<!-- Generator: Adobe Illustrator 19.0.0, SVG Export Plug-In . SVG Version: 6.00 Build 0)  -->
<svg version="1.1" id="Layer_1" xmlns="http://www.w3.org/2000/svg" xmlns:xlink="http://www.w3.org/1999/xlink" x="0px" y="0px"
	 viewBox="0 0 512 512" style="enable-background:new 0 0 512 512;" xml:space="preserve">
<g>
	<g>
		<path d="M474.2,112.506H338.331V55.607c0-20.843-16.957-37.8-37.8-37.8h-89.061c-20.843,0-37.8,16.957-37.8,37.8v56.899H37.8
			c-20.843,0-37.8,16.957-37.8,37.8v306.087c0,20.843,16.957,37.8,37.8,37.8h436.4c20.843,0,37.8-16.957,37.8-37.8V150.306
			C512,129.463,495.043,112.506,474.2,112.506z M215.669,59.807h80.661v52.699h-80.661V59.807z M42,154.506h30.583L42,183.907
			V154.506z M42,452.193v-28.077l29.206,28.077H42z M470,452.193h-29.659L470,423.681V452.193z M470,365.419l-90.261,86.774h-247.93
			L42,365.856V242.097c0.263-0.23,0.536-0.444,0.79-0.689l90.396-86.903h101.814v53.154c0,11.598,9.402,21,21,21
			c11.598,0,21-9.402,21-21v-53.154h104.16L470,239.912V365.419z M470,181.652l-28.237-27.146H470V181.652z"/>
	</g>
</g>
<g>
</g>
<g>
</g>
<g>
</g>
<g>
</g>
<g>
</g>
<g>
</g>
<g>
</g>
<g>
</g>
<g>
</g>
<g>
</g>
<g>
</g>
<g>
</g>
<g>
</g>
<g>
</g>
<g>
</g>
</svg>
